<?xml version="1.0" encoding="utf-8"?>
<!-- Generator: Adobe Illustrator 21.0.0, SVG Export Plug-In . SVG Version: 6.00 Build 0)  -->
<svg version="1.1" id="Livello_1" xmlns="http://www.w3.org/2000/svg" xmlns:xlink="http://www.w3.org/1999/xlink" x="0px" y="0px"
	 viewBox="0 0 92 92" style="enable-background:new 0 0 92 92;" xml:space="preserve">
<style type="text/css">
	.st0{fill:none;stroke:#228AE6;stroke-miterlimit:10;}
	.st1{fill:#228AE6;}
</style>
<circle class="st0" cx="46.3" cy="46" r="43.8"/>
<title>klink-logo</title>
<path class="st1" d="M37.4,43.4c-2.5,2.5-2.5,6.4,0,8.9c2.5,2.5,6.4,2.5,8.9,0l0,0l0,0L58.7,40c0.4-0.3,0.4-0.9,0.1-1.3
	s-0.9-0.4-1.3-0.1c0,0-0.1,0.1-0.1,0.1L45.1,51c-1.8,1.7-4.7,1.6-6.4-0.2c-1.6-1.7-1.6-4.4,0-6.1l18.8-18.8l0,0
	c2.3-2.5,6.3-2.7,8.8-0.3c2.5,2.3,2.7,6.3,0.3,8.8c-0.1,0.1-0.2,0.2-0.3,0.3l0,0L54.9,46c-1.1,1.1-1.1,2.9,0,4l12.4,12.5
	c1.1,1.2,1.4,2.8,0.8,4.3c-0.3,0.8-1,1.4-1.9,1.4H29.1c-2.8,0-5.1-2.3-5.1-5.1V27c-0.1-1.3,0.5-2.4,1.7-3c1.4-0.6,3.3,0.1,4.7,1.6
	c0.3,0.4,0.9,0.4,1.3,0c0.4-0.3,0.4-0.9,0-1.3c-2-2.1-4.6-2.9-6.7-2c-1.8,0.8-2.9,2.7-2.8,4.7v36.1c0,3.8,3.1,6.9,6.9,6.9h37.1
	c1.6,0,3-1,3.6-2.5c0.8-2.1,0.4-4.6-1.2-6.3L56.3,48.8c-0.4-0.4-0.4-1,0-1.4c0,0,0,0,0,0l11.4-11.4c3.1-3.1,3.1-8.2,0-11.4
	s-8.2-3.1-11.4,0L37.4,43.4z"/>
</svg>
