<svg xmlns="http://www.w3.org/2000/svg" viewBox="0 0 151.93 36.63">
    <defs>
        <style>
            .cls-1{fill:#228ae6}
        </style>
    </defs>
    <title>
        logotype
    </title>
    <g id="Layer_2" data-name="Layer 2">
        <g id="Layer_1-2" data-name="Layer 1">
            <path class="cls-1" d="M23.35 32.29a4.85 4.85 0 0 1 .47.84 2.3 2.3 0 0 1 .21.94 2.42 2.42 0 0 1-.78 1.8 2.55 2.55 0 0 1-1.83.76 2.42 2.42 0 0 1-1-.24 3.75 3.75 0 0 1-.94-.6L5.22 20.12v13.95a2.46 2.46 0 0 1-.76 1.8 2.52 2.52 0 0 1-1.85.76 2.55 2.55 0 0 1-1.83-.76 2.42 2.42 0 0 1-.78-1.8V2.62A2.42 2.42 0 0 1 .78.82 2.55 2.55 0 0 1 2.61.06a2.52 2.52 0 0 1 1.86.76 2.46 2.46 0 0 1 .76 1.8v13.95L19.49.9a3.78 3.78 0 0 1 .94-.6 2.43 2.43 0 0 1 1-.24 2.52 2.52 0 0 1 1.85.76 2.46 2.46 0 0 1 .72 1.8 2.64 2.64 0 0 1-.68 1.78L10.61 18.34zM51.51 15.79a2.52 2.52 0 0 1 1.85.76 2.52 2.52 0 0 1 0 3.6 2.52 2.52 0 0 1-1.85.76H31.14a2.55 2.55 0 0 1-1.83-.76 2.46 2.46 0 0 1 0-3.6 2.55 2.55 0 0 1 1.83-.76zM61.38 36.63a2.76 2.76 0 0 1-1.86-.7 2.44 2.44 0 0 1-.85-1.86V2.62a2.42 2.42 0 0 1 .78-1.8 2.61 2.61 0 0 1 1.88-.76 2.46 2.46 0 0 1 1.8.76 2.46 2.46 0 0 1 .76 1.8v28a.76.76 0 0 0 .76.76h10.67a2.73 2.73 0 0 1 1.87.72 2.58 2.58 0 0 1 .81 1.97 2.44 2.44 0 0 1-.85 1.86 2.76 2.76 0 0 1-1.86.7zM85.36 36.63a2.59 2.59 0 0 1-2.56-2.56V2.62a2.46 2.46 0 0 1 .76-1.8 2.46 2.46 0 0 1 1.8-.76 2.55 2.55 0 0 1 1.83.76 2.42 2.42 0 0 1 .81 1.8v31.45a2.42 2.42 0 0 1-.78 1.8 2.55 2.55 0 0 1-1.86.76zM151.25 32.29a4.85 4.85 0 0 1 .47.84 2.3 2.3 0 0 1 .21.94 2.42 2.42 0 0 1-.78 1.8 2.55 2.55 0 0 1-1.83.76 2.42 2.42 0 0 1-1-.24 3.75 3.75 0 0 1-.94-.6l-14.26-15.67v13.95a2.46 2.46 0 0 1-.76 1.8 2.52 2.52 0 0 1-1.85.76 2.55 2.55 0 0 1-1.83-.76 2.42 2.42 0 0 1-.78-1.8V2.62a2.42 2.42 0 0 1 .78-1.8 2.55 2.55 0 0 1 1.83-.76 2.52 2.52 0 0 1 1.85.76 2.46 2.46 0 0 1 .76 1.8v13.95L147.39.9a3.78 3.78 0 0 1 .94-.6 2.43 2.43 0 0 1 1-.24 2.52 2.52 0 0 1 1.85.76 2.46 2.46 0 0 1 .76 1.8 2.64 2.64 0 0 1-.68 1.78L138.5 18.34zM120.76 0a2.63 2.63 0 0 0-2.62 2.63v27.32a.37.37 0 0 1-.69.17C114.47 24.14 103 3 103 3c-.74-1.49-1.82-3-4.17-3h-1.59c-2.68 0-4.42 1.81-4.42 4.61V34a2.62 2.62 0 0 0 2.62 2.62 2.76 2.76 0 0 0 2.65-2.66V6.72a.37.37 0 0 1 .7-.17c3 6 14.48 27.06 14.48 27.06.68 1.41 1.78 3 4.23 3h1.5c2.68 0 4.42-1.81 4.42-4.61V2.63A2.78 2.78 0 0 0 120.76 0z"/>
        </g>
    </g>
</svg>
