<svg id="Livello_1" data-name="Livello 1" xmlns="http://www.w3.org/2000/svg" viewBox="0 0 160 38"><defs><style>.cls-1{fill:#51606d;}</style></defs><title>oneoff-logo</title><g id="_Gruppo_" data-name="&lt;Gruppo&gt;"><path id="_Tracciato_" data-name="&lt;Tracciato&gt;" class="cls-1" d="M133.11,5.79H118.65a2.86,2.86,0,0,0-2.87,2.87V29a2.87,2.87,0,0,0,5.74,0V21.62h9.93a2.59,2.59,0,0,0,0-5.18h-9.93V11h11.59a2.59,2.59,0,0,0,0-5.18Z"/><path id="_Tracciato_2" data-name="&lt;Tracciato&gt;" class="cls-1" d="M156.54,11a2.59,2.59,0,0,0,0-5.18H142.08a2.79,2.79,0,0,0-2.78,2.87V29a2.8,2.8,0,1,0,5.6,0V21.62h10a2.59,2.59,0,0,0,0-5.18h-10V11Z"/><path id="_Tracciato_composto_" data-name="&lt;Tracciato composto&gt;" class="cls-1" d="M98.14,5.37a13.42,13.42,0,0,0-13.6,11.06H79.66a2.38,2.38,0,0,0,0,4.76h4.9C85.65,27.4,91,32.1,98.07,32.1a13.38,13.38,0,0,0,13.79-13.36C111.86,11.32,106.11,5.37,98.14,5.37Zm7.7,13.44a7.75,7.75,0,0,1-15.2,2.39H98.1a2.38,2.38,0,0,0,2.41-2.36,2.41,2.41,0,0,0-2.41-2.4H90.57A7.56,7.56,0,0,1,98,10.61a7.84,7.84,0,0,1,7.81,8.12Z"/><path id="_Tracciato_3" data-name="&lt;Tracciato&gt;" class="cls-1" d="M83.64,1,80.09,6.27l-16.21,0A2.38,2.38,0,0,0,64,11H76.9l-3.64,5.4H63.94v0a2.38,2.38,0,0,0,0,4.75h6.1l-3.85,5.71H64.05a2.39,2.39,0,0,0-2.4,2.38,2.36,2.36,0,0,0,1.47,2.19L59.36,37h.34L84,1Z"/><path id="_Tracciato_composto_2" data-name="&lt;Tracciato composto&gt;" class="cls-1" d="M14.76,5.37A13.35,13.35,0,0,0,1,18.74v.07C1,26.16,6.71,32.1,14.68,32.1A13.35,13.35,0,0,0,28.44,18.74v-.07C28.44,11.32,22.73,5.37,14.76,5.37Zm7.8,13.44a7.77,7.77,0,0,1-7.8,8,7.89,7.89,0,0,1-7.88-8.12v-.07a7.77,7.77,0,0,1,7.8-8,7.89,7.89,0,0,1,7.88,8.12Z"/><circle id="_Tracciato_4" data-name="&lt;Tracciato&gt;" class="cls-1" cx="14.59" cy="18.74" r="2.43"/><path id="_Tracciato_5" data-name="&lt;Tracciato&gt;" class="cls-1" d="M53.5,5.6a2.8,2.8,0,0,0-2.8,2.8V21.73L39.77,7.32a3.48,3.48,0,0,0-2.93-1.67h-.59a2.89,2.89,0,0,0-2.91,2.86V29.07a2.87,2.87,0,0,0,5.74,0V15.23L50.41,30.16a3.48,3.48,0,0,0,2.92,1.68h.18A2.81,2.81,0,0,0,56.3,29V8.4A2.8,2.8,0,0,0,53.5,5.6Z"/></g></svg>