<svg xmlns="http://www.w3.org/2000/svg" viewBox="0 0 235.19 310.33"><defs><style>.cls-1{fill:#e0fcf8;}.cls-2{fill:#ffb087;}.cls-3{fill:#dd911d;}.cls-10,.cls-11,.cls-4,.cls-5,.cls-9{fill:none;stroke-width:4px;}.cls-4{stroke:#002158;}.cls-10,.cls-11,.cls-4,.cls-5{stroke-linecap:round;}.cls-10,.cls-4,.cls-5{stroke-linejoin:round;}.cls-5{stroke:#15173f;}.cls-6{fill:#f7c947;}.cls-7{fill:#ffcf01;}.cls-8{fill:#ef4e4e;}.cls-11,.cls-9{stroke:#099aa4;stroke-miterlimit:10;}.cls-10{stroke:#9aa5b1;}.cls-12{opacity:0.68;}</style></defs><title>schema-small</title><g id="Livello_2" data-name="Livello 2"><g id="Livello_1-2" data-name="Livello 1"><path class="cls-1" d="M40.63,194.89c1.58,8.11,2.77,16.23,4,24.34.58,4.06,1.14,8.11,1.65,12.17s.93,8.11,1.35,12.17,1.26,8.11,1.9,12.17c.15,1,.28,2,.37,3A10.59,10.59,0,0,0,50,260c0,.19,0,.39.08.58.1.77.17,1.52.3,2.37A12.5,12.5,0,0,0,53,268.91a14.31,14.31,0,0,0,3.43,3.15,41,41,0,0,1,6.07,3.57v2a37.65,37.65,0,0,1-6.1,3.57,17.79,17.79,0,0,1-8.46.9A20.69,20.69,0,0,1,39.38,279a22.54,22.54,0,0,1-6.7-6.73A21.22,21.22,0,0,1,29.41,263a20.63,20.63,0,0,1-.13-2.45,13.58,13.58,0,0,1,.08-1.81c.09-1,.22-2,.37-3,.64-4.06,1.5-8.11,1.9-12.17s.86-8.11,1.35-12.17,1.07-8.11,1.65-12.17c1.23-8.11,2.42-16.23,4-24.34Z"/><path class="cls-1" d="M53.87,122.62a29.3,29.3,0,0,1,6.81-4.36,37.46,37.46,0,0,1,6.83-2.44,41.36,41.36,0,0,1,6.83-1.11,17.89,17.89,0,0,1,6.82.57,48.18,48.18,0,0,1,6.79,2.83c.56.26,1.13.54,1.69.76s1.18.46,1.55.66a9.27,9.27,0,0,0,3.06.63,11.33,11.33,0,0,0,6-1.51,12.26,12.26,0,0,0,4.35-4.32,23.37,23.37,0,0,0,2.17-5.07c.45-1.58,1-2.88,1.23-4.33.54-2.88.32-5.89.72-9.28l.08-.64.09-.81c.05-.57.13-1.13.21-1.7.16-1.13.37-2.27.6-3.4a59.76,59.76,0,0,1,1.83-6.8,53.62,53.62,0,0,1,2.76-6.8c.56-1.13,1.15-2.27,1.84-3.4.08-.14.16-.28.26-.43l.07-.11,0-.05c-5.24,0,7.16,0,5.87,0l0,0-.14.21-.55.85c-.37.57-.78,1.13-1.23,1.7h-2c-.45-.57-.85-1.13-1.23-1.7l-.55-.85-.14-.21,0,0c-1.29,0,11.11,0,5.87,0l0,.05.07.11c.09.14.18.28.26.43.68,1.13,1.27,2.27,1.84,3.4a53.61,53.61,0,0,1,2.76,6.8,59.76,59.76,0,0,1,1.83,6.8c.23,1.13.44,2.27.6,3.4.08.57.16,1.13.21,1.7,0,.3.07.53.08.89l0,1.06c0,.71,0,1.42,0,2.13s-.12,1.45-.22,2.17l-.15,1.08-.24,1.1c-.17.73-.33,1.45-.55,2.18a34.16,34.16,0,0,1-3.94,8.4,23.56,23.56,0,0,1-6.35,6.91,23.25,23.25,0,0,1-8.31,3.53c-2.82.65-5.48.95-8,1.37a67.61,67.61,0,0,0-7.27,1.51c-1.21.34-2.4.73-3.72,1.18a13.4,13.4,0,0,0-1.85.66c-.57.23-1.14.5-1.71.76A49.39,49.39,0,0,1,81,132a17.75,17.75,0,0,1-6.79.57,40.7,40.7,0,0,1-6.78-1.11A37.1,37.1,0,0,1,60.66,129a29.42,29.42,0,0,1-6.79-4.36Z"/><path class="cls-1" d="M120.17,115.71a23.87,23.87,0,0,1,4.36,5.52,26.8,26.8,0,0,1,2.44,5.52,27.63,27.63,0,0,1,1.11,5.52,11.87,11.87,0,0,1-.57,5.52c-1.31,3.68-4.52,7.36-5.13,11a13.78,13.78,0,0,0,.14,5.52,23.73,23.73,0,0,0,2.12,5.52,53.18,53.18,0,0,1,2.57,5.52,32.64,32.64,0,0,1,1.4,5.52c.38,1.84.77,3.68,1,5.52a25,25,0,0,1,.2,5.52,38,38,0,0,1-2.79,11,39.31,39.31,0,0,1-2.76,5.52,31.82,31.82,0,0,1-4.14,5.52h-2a31.82,31.82,0,0,1-4.14-5.52,39.31,39.31,0,0,1-2.76-5.52,38,38,0,0,1-2.79-11,25,25,0,0,1,.2-5.52c.27-1.84.66-3.68,1-5.52a32.64,32.64,0,0,1,1.4-5.52,53.18,53.18,0,0,1,2.57-5.52,23.73,23.73,0,0,0,2.12-5.52,13.78,13.78,0,0,0,.14-5.52c-.61-3.68-3.82-7.36-5.13-11a11.87,11.87,0,0,1-.57-5.52,27.63,27.63,0,0,1,1.11-5.52,26.81,26.81,0,0,1,2.44-5.52,23.87,23.87,0,0,1,4.36-5.52Z"/><path class="cls-2" d="M28.74,144.43c-7.16,0-13-6.28-13-14s5.83-14,13-14,13,6.28,13,14S35.9,144.43,28.74,144.43Zm0-25.14c-5.71,0-10.35,5-10.35,11.15S23,141.59,28.74,141.59s10.35-5,10.35-11.15S34.44,119.29,28.74,119.29Z"/><path class="cls-3" d="M16.69,159.61c-6.13,0-11.11,4.67-11.11,10.42v5s-2.25,1.9-2.88,1.83l0-6.8C2.74,162.82,9,157,16.69,157l26.51.74Z"/><path class="cls-4" d="M54,175.73v-6.51a13,13,0,0,0-13-13H15a13,13,0,0,0-13,13v6.51"/><circle class="cls-4" cx="28.02" cy="130.19" r="13.01"/><path class="cls-5" d="M122.07,224H89.81A8.06,8.06,0,0,0,81.75,232v64.51a8.06,8.06,0,0,0,8.06,8.06H138.2a8.06,8.06,0,0,0,8.06-8.06V248.15Z"/><polyline class="cls-5" points="122.07 223.95 122.07 248.15 146.26 248.15"/><line class="cls-5" x1="130.14" y1="259.47" x2="97.88" y2="259.47"/><line class="cls-5" x1="130.14" y1="266.76" x2="97.88" y2="266.76"/><polyline class="cls-5" points="105.94 252.18 101.91 252.18 97.88 252.18"/><line class="cls-5" x1="130.14" y1="281.56" x2="97.88" y2="281.56"/><line class="cls-5" x1="130.14" y1="288.85" x2="97.88" y2="288.85"/><polyline class="cls-5" points="118.94 274.27 108.41 274.27 97.88 274.27"/><polyline class="cls-6" points="200.27 267.01 219.11 291.49 194.63 310.33"/><polyline class="cls-5" points="195.16 269.53 211.28 290.47 190.34 306.59"/><line class="cls-5" x1="171.08" y1="285.24" x2="211.27" y2="290.47"/><polyline class="cls-6" points="210.35 208.12 235.19 226.48 216.82 251.32"/><line class="cls-7" x1="156.64" y1="238.25" x2="235.18" y2="226.48"/><polyline class="cls-5" points="206.13 211.94 227.38 227.65 211.67 248.9"/><line class="cls-5" x1="160.19" y1="237.72" x2="227.38" y2="227.65"/><polygon class="cls-8" points="104.51 26.11 83.7 61.69 92.81 61.69 109.05 33.55 104.51 26.11"/><polyline class="cls-9" points="143.45 25.88 137.49 32.1 129.29 25.73 122.92 32.1 115.28 24.6"/><polyline class="cls-10" points="73.61 61.69 99.97 18.2 109.05 33.55"/><polyline class="cls-4" points="92.81 61.69 128.98 2 165.16 61.69"/><line class="cls-4" x1="109.05" y1="61.69" x2="63.27" y2="61.69"/><line class="cls-4" x1="172.54" y1="61.69" x2="118.28" y2="61.69"/><path class="cls-11" d="M53.87,123.62H90.7s28.72.74,28.72-28.72V74.27"/><path class="cls-11" d="M39.63,194.89v64.93a16.82,16.82,0,0,0,16.82,16.82h6"/><g class="cls-12"><path class="cls-6" d="M132.93,289.25c-3.13.63-6.26,1.11-9.39,1.6l-4.69.66-4.69.54c-1.56.16-3.13.5-4.69.76a14.89,14.89,0,0,1-4.69,0,25,25,0,0,1-4.69-1.17,18.36,18.36,0,0,1-4.69-2.43v-.8a18.36,18.36,0,0,1,4.69-2.43,25,25,0,0,1,4.69-1.17,14.88,14.88,0,0,1,4.69,0c1.56.26,3.13.6,4.69.76l4.69.54,4.69.66c3.13.49,6.26,1,9.39,1.6Z"/></g><g class="cls-12"><path class="cls-6" d="M121.89,274.43a12.2,12.2,0,0,1-3.31,2.43,13.63,13.63,0,0,1-3.31,1.17,7.47,7.47,0,0,1-3.31,0c-1.1-.26-2.21-.6-3.31-.76l-3.31-.54L102,276c-2.21-.49-4.42-1-6.63-1.6v-.8c2.21-.63,4.42-1.11,6.63-1.6l3.31-.66,3.31-.54c1.1-.16,2.21-.5,3.31-.76a7.46,7.46,0,0,1,3.31,0,13.62,13.62,0,0,1,3.31,1.17,12.2,12.2,0,0,1,3.31,2.43Z"/></g><line class="cls-11" x1="119.17" y1="96.22" x2="119.17" y2="184.6"/></g></g></svg>