<svg xmlns="http://www.w3.org/2000/svg" viewBox="0 0 558 225.59">
<defs><style>
.cls-1{fill:#e0fcf8;}
.cls-2{fill:#ffb087;}
.cls-3{fill:#dd911d;}
.cls-10,.cls-11,.cls-4,.cls-5,.cls-9{fill:none;stroke-width:4px;}
.cls-4{stroke:#002158;}
.cls-10,.cls-11,.cls-4,.cls-5{stroke-linecap:round;}
.cls-10,.cls-4,.cls-5{stroke-linejoin:round;}
.cls-5{stroke:#15173f;}
.cls-6{fill:#f7c947;}
.cls-7{fill:#ffcf01;}
.cls-8{fill:#ef4e4e;}
.cls-11,.cls-9{stroke:#099aa4;stroke-miterlimit:10;}
.cls-10{stroke:#9aa5b1;}
.cls-12{opacity:0.68;}
</style></defs>
<g id="Livello_2" data-name="Livello 2"><g id="Livello_1-2" data-name="Livello 1"><path class="cls-1" d="M238.19,199c11.54-1.58,23.08-2.77,34.61-4q8.65-.87,17.31-1.65T307.42,192c5.77-.4,11.54-1.26,17.31-1.9,1.44-.15,2.88-.28,4.33-.37.67,0,1.6-.08,1.87-.14s.82-.06,1.22-.13a24.36,24.36,0,0,0,4.81-1.05,20.38,20.38,0,0,0,9.29-6.31,23,23,0,0,0,3.63-5.94,67,67,0,0,1,3.58-8.63h2a62.13,62.13,0,0,1,3.57,8.67,24.54,24.54,0,0,1,.43,11,27.62,27.62,0,0,1-4.48,10.7,29.57,29.57,0,0,1-8.74,8.28,27.93,27.93,0,0,1-14.72,4.19,22.8,22.8,0,0,1-2.45-.07c-1.44-.09-2.88-.22-4.33-.37-5.77-.64-11.54-1.5-17.31-1.9s-11.54-.86-17.31-1.35-11.54-1.07-17.31-1.65c-11.54-1.23-23.08-2.42-34.61-4Z"/><path class="cls-1" d="M68.46,106.8a46.71,46.71,0,0,1,4.36,9.69,69.8,69.8,0,0,1,2.44,9.7,81.72,81.72,0,0,1,1.11,9.7,35.78,35.78,0,0,1-.57,9.69A87,87,0,0,1,73,155.23c-.26.8-.54,1.61-.76,2.41l-.66,2.27A17.14,17.14,0,0,0,71,164.4a19,19,0,0,0,.6,4.51,21,21,0,0,0,1.55,4.26,21.47,21.47,0,0,0,5.53,6.95,36,36,0,0,0,6.89,4.39,43,43,0,0,0,6.7,2.83c4.6,1.38,9.54,1.51,14.85,2l1,.09,1.17.09c.81.05,1.61.13,2.42.21,1.61.16,3.22.37,4.84.61,3.22.45,6.45,1.07,9.67,1.82a97.08,97.08,0,0,1,9.67,2.76c1.61.56,3.22,1.15,4.84,1.84l.6.26.15.07.08,0c0-5.25,0,7.17,0,5.88l0,0-.3-.13c-.4-.17-.81-.36-1.21-.55-.81-.39-1.61-.78-2.42-1.23v-2c.81-.45,1.61-.85,2.42-1.23.4-.19.81-.38,1.21-.55l.3-.13,0,0c0-1.29,0,11.13,0,5.88l-.08,0-.15.07-.6.26c-1.61.68-3.22,1.27-4.84,1.84a97.08,97.08,0,0,1-9.67,2.76c-3.22.75-6.45,1.37-9.67,1.82-1.61.24-3.22.45-4.84.61-.81.08-1.61.16-2.42.21-.42,0-.77.07-1.24.08l-1.42,0c-.95,0-1.9,0-2.85,0s-1.93-.17-2.89-.29c-.48-.06-1-.11-1.44-.18L98,209.87c-1-.21-1.92-.4-2.88-.67A45.79,45.79,0,0,1,84,204.34,30.81,30.81,0,0,1,69.4,185.87c-1.15-3.63-1.84-7.18-2.58-10.57s-1.35-6.71-2.15-10.06l-1.29-5.15c-.22-1-.41-1.75-.67-2.56s-.5-1.62-.76-2.42a88.57,88.57,0,0,1-2.83-9.69,35.59,35.59,0,0,1-.57-9.66,80.82,80.82,0,0,1,1.11-9.65,69.31,69.31,0,0,1,2.44-9.65,46.8,46.8,0,0,1,4.36-9.66Z"/><path class="cls-1" d="M173.25,85.9a35,35,0,0,1,7.86-4.36A47.6,47.6,0,0,1,189,79.1,54.16,54.16,0,0,1,196.82,78a23.65,23.65,0,0,1,7.86.57c5.24,1.31,10.47,4.52,15.71,5.13a27.72,27.72,0,0,0,7.86-.14,43.36,43.36,0,0,0,7.86-2.12c2.62-.92,5.24-1.91,7.86-2.57a63,63,0,0,1,7.86-1.4c2.62-.38,5.24-.77,7.86-1a50.46,50.46,0,0,1,7.86-.2A73.2,73.2,0,0,1,283.23,79a67.81,67.81,0,0,1,7.86,2.76,47.64,47.64,0,0,1,7.86,4.14v2A47.64,47.64,0,0,1,291.09,92a67.81,67.81,0,0,1-7.86,2.76,73.2,73.2,0,0,1-15.71,2.79,50.46,50.46,0,0,1-7.86-.2c-2.62-.27-5.24-.66-7.86-1a63,63,0,0,1-7.86-1.4c-2.62-.66-5.24-1.65-7.86-2.57a43.38,43.38,0,0,0-7.86-2.12,27.72,27.72,0,0,0-7.86-.14c-5.24.61-10.47,3.82-15.71,5.13a23.66,23.66,0,0,1-7.86.57A54.16,54.16,0,0,1,189,94.7a47.6,47.6,0,0,1-7.86-2.44,35,35,0,0,1-7.86-4.36Z"/><path class="cls-2" d="M185.15,179.07c-10.19,0-18.47-8.93-18.47-19.9s8.29-19.9,18.47-19.9,18.48,8.93,18.48,19.9S195.34,179.07,185.15,179.07Zm0-35.75c-8.12,0-14.72,7.11-14.72,15.85S177,175,185.15,175s14.72-7.11,14.72-15.85S193.27,143.32,185.15,143.32Z"/><path class="cls-3" d="M168,200.66c-8.71,0-15.8,6.65-15.8,14.82v7.06s-3.2,2.7-4.1,2.61l.06-9.67c0-10.26,8.9-18.61,19.84-18.61l37.71,1Z"/><path class="cls-4" d="M221.14,223.59v-9.25a18.5,18.5,0,0,0-18.5-18.5h-37a18.5,18.5,0,0,0-18.5,18.5v9.25"/><circle class="cls-4" cx="184.14" cy="158.82" r="18.5"/><path class="cls-5" d="M377.76,46H331.89a11.47,11.47,0,0,0-11.47,11.47v91.75a11.47,11.47,0,0,0,11.47,11.47H400.7a11.47,11.47,0,0,0,11.47-11.47V80.46Z"/><polyline class="cls-5" points="377.76 46.05 377.76 80.46 412.17 80.46"/><line class="cls-5" x1="389.23" y1="96.56" x2="343.36" y2="96.56"/><line class="cls-5" x1="389.23" y1="106.93" x2="343.36" y2="106.93"/><polyline class="cls-5" points="354.83 86.19 349.09 86.19 343.36 86.19"/><line class="cls-5" x1="389.23" y1="127.98" x2="343.36" y2="127.98"/><line class="cls-5" x1="389.23" y1="138.35" x2="343.36" y2="138.35"/><polyline class="cls-5" points="373.31 117.61 358.33 117.61 343.36 117.61"/><polyline class="cls-6" points="508.34 126.84 535.13 161.65 500.32 188.44"/><line class="cls-7" x1="423.12" y1="147.06" x2="535.13" y2="161.65"/><polyline class="cls-5" points="501.08 130.42 524 160.2 494.21 183.12"/><line class="cls-5" x1="428.18" y1="147.72" x2="523.99" y2="160.2"/><polyline class="cls-6" points="522.68 43.07 558 69.19 531.88 104.51"/><line class="cls-7" x1="446.29" y1="85.93" x2="558" y2="69.19"/><polyline class="cls-5" points="516.68 48.51 546.89 70.85 524.55 101.07"/><line class="cls-5" x1="451.33" y1="85.17" x2="546.89" y2="70.85"/><polygon class="cls-8" points="60.65 36.29 31.05 86.9 44 86.9 67.1 46.88 60.65 36.29"/><polyline class="cls-9" points="116.04 35.96 107.55 44.81 95.89 35.74 86.83 44.81 75.97 34.15"/><polyline class="cls-10" points="16.7 86.9 54.19 25.04 67.1 46.88"/><polyline class="cls-4" points="44 86.9 95.46 2 146.91 86.9"/><line class="cls-4" x1="67.1" y1="86.9" x2="2" y2="86.9"/><line class="cls-4" x1="157.41" y1="86.9" x2="80.23" y2="86.9"/><path class="cls-11" d="M67.46,106.8v52.37S66.42,200,108.31,200h29.33"/><path class="cls-11" d="M238.19,200h92.35a23.92,23.92,0,0,0,23.92-23.92v-8.55"/><g class="cls-12"><path class="cls-6" d="M393.21,138.75c-4.45.63-8.9,1.11-13.35,1.6l-6.68.66-6.68.54c-2.23.17-4.45.49-6.68.76a30,30,0,0,1-6.68,0,48.36,48.36,0,0,1-6.68-1.17,31.32,31.32,0,0,1-6.68-2.43V138a31.32,31.32,0,0,1,6.68-2.43,48.36,48.36,0,0,1,6.68-1.17,30,30,0,0,1,6.68,0c2.23.27,4.45.59,6.68.76l6.68.54,6.68.66c4.45.49,8.9,1,13.35,1.6Z"/></g><g class="cls-12"><path class="cls-6" d="M377.5,117.67a18.45,18.45,0,0,1-4.71,2.43,25.24,25.24,0,0,1-4.71,1.17,15,15,0,0,1-4.71,0c-1.57-.26-3.14-.6-4.71-.76l-4.71-.54-4.71-.66c-3.14-.49-6.28-1-9.43-1.6v-.8c3.14-.63,6.28-1.11,9.43-1.6l4.71-.66,4.71-.54c1.57-.16,3.14-.5,4.71-.76a15,15,0,0,1,4.71,0,25.22,25.22,0,0,1,4.71,1.17,18.45,18.45,0,0,1,4.71,2.43Z"/></g><line class="cls-11" x1="173.25" y1="86.9" x2="298.95" y2="86.9"/></g></g></svg>